<?xml version="1.0" standalone="no"?>
<!DOCTYPE svg PUBLIC "-//W3C//DTD SVG 20010904//EN"
 "http://www.w3.org/TR/2001/REC-SVG-20010904/DTD/svg10.dtd">
<svg version="1.0" xmlns="http://www.w3.org/2000/svg"
 width="319.000000pt" height="319.000000pt" viewBox="0 0 319.000000 319.000000"
 preserveAspectRatio="xMidYMid meet">
<metadata>
Created by potrace 1.14, written by Peter Selinger 2001-2017
</metadata>
<g transform="translate(0.000000,319.000000) scale(0.100000,-0.100000)"
fill="#000000" stroke="none">
<path d="M1235 2922 c-6 -5 -37 -16 -70 -26 -33 -9 -76 -23 -95 -31 -41 -16
-74 -27 -78 -25 -1 0 -16 -7 -32 -15 -16 -8 -31 -15 -32 -15 -4 2 -38 -10 -78
-26 -67 -26 -95 -37 -105 -40 -5 -1 -23 -8 -40 -15 -16 -6 -34 -13 -40 -14 -5
-2 -17 -4 -25 -6 -8 -2 -21 -10 -29 -17 -8 -8 -22 -11 -33 -9 -10 3 -16 2 -13
-2 7 -12 -100 -52 -121 -45 -13 4 -15 3 -6 -3 9 -7 2 -14 -24 -26 -30 -15 -39
-15 -53 -5 -14 11 -14 11 -3 -4 11 -14 10 -17 -10 -23 -51 -17 -50 -8 -48
-413 0 -207 1 -381 1 -387 -4 -229 -2 -526 3 -534 4 -6 3 -11 -3 -11 -5 0 -8
-9 -6 -20 2 -11 4 -54 4 -95 1 -41 1 -110 2 -152 0 -43 2 -79 4 -81 2 -2 0
-14 -5 -26 -6 -18 -4 -26 12 -37 11 -8 26 -19 33 -26 7 -7 15 -10 17 -7 10 10
59 -16 52 -28 -5 -7 -3 -8 5 -3 12 7 30 1 83 -26 10 -5 25 -9 33 -9 8 0 15 -5
15 -10 0 -6 3 -9 8 -8 13 5 272 -104 267 -112 -3 -4 1 -8 8 -7 34 1 48 -4 41
-15 -4 -6 -3 -8 4 -4 14 9 294 -108 285 -119 -5 -4 -3 -5 3 -2 10 6 138 -43
259 -97 17 -8 40 -17 53 -21 12 -3 22 -11 22 -17 0 -6 3 -9 6 -5 4 3 28 -2 55
-13 27 -10 46 -14 43 -9 -3 5 1 9 9 9 8 0 63 23 121 50 59 28 112 47 118 44 6
-4 8 -3 5 2 -3 6 9 16 26 23 18 8 62 29 99 47 36 18 69 30 72 26 3 -3 6 0 6 6
0 7 3 11 8 10 4 -1 22 6 40 15 17 10 32 15 32 12 0 -4 7 1 16 10 9 9 23 14 30
11 8 -3 14 -2 14 2 0 14 118 62 137 56 13 -4 15 -3 4 4 -10 7 1 16 44 36 31
14 62 23 69 19 6 -3 8 -2 3 2 -11 13 66 44 81 32 9 -7 11 -6 7 4 -3 9 6 19 23
27 55 24 72 48 68 98 -2 34 0 44 10 40 7 -3 16 0 20 6 4 6 3 8 -3 5 -6 -4 -16
0 -23 8 -10 12 -10 15 0 15 10 0 10 3 1 14 -9 11 -9 15 1 19 10 4 10 6 1 6 -7
1 -13 6 -13 12 0 5 6 7 13 3 8 -5 8 -2 -2 9 -10 13 -10 17 -1 17 10 0 10 3 0
15 -10 12 -10 15 1 15 11 0 11 2 -1 10 -12 8 -12 10 -1 10 11 0 11 3 1 15 -10
12 -10 15 0 15 10 0 10 3 0 15 -10 12 -10 15 1 15 9 0 10 3 4 8 -6 4 -10 26
-11 50 0 34 3 42 15 37 11 -4 10 0 -4 15 -12 13 -14 20 -5 20 10 0 10 3 0 15
-10 12 -10 15 1 15 11 0 11 2 -1 10 -13 9 -13 10 0 10 12 0 12 2 1 9 -9 6 -10
10 -2 16 9 5 9 10 0 21 -9 11 -8 14 2 14 11 0 11 2 -1 10 -12 8 -12 10 -1 10
11 0 11 3 1 15 -10 12 -10 15 0 15 10 0 10 3 0 15 -10 12 -10 15 1 15 9 0 10
3 4 8 -6 4 -10 26 -11 50 0 34 3 42 15 37 11 -4 10 0 -4 15 -12 13 -14 20 -5
20 10 0 10 3 0 15 -10 12 -10 15 1 15 9 0 10 3 4 8 -6 4 -11 16 -11 27 0 11 5
23 11 27 6 5 5 8 -4 8 -11 0 -11 3 0 17 8 9 9 14 3 10 -12 -7 -12 21 0 41 4 7
2 12 -6 12 -9 0 -9 3 2 10 8 5 10 10 3 10 -12 0 -12 17 0 36 3 6 3 14 -1 18
-10 11 -9 40 3 48 6 5 5 8 -4 8 -9 0 -7 5 6 18 10 9 13 13 6 8 -7 -5 -13 -7
-14 -5 -6 32 -2 129 6 129 7 0 7 3 0 8 -5 4 -9 14 -9 22 1 8 2 21 3 29 1 10 4
11 14 3 10 -8 13 -6 14 11 1 13 -1 17 -5 10 -5 -8 -13 -9 -22 -3 -13 9 -13 10
0 10 9 0 11 3 5 8 -12 8 -13 27 -2 38 10 10 9 26 -1 20 -10 -6 -8 48 2 85 6
18 5 20 -3 9 -9 -13 -11 -12 -11 6 0 17 -6 21 -32 20 -27 -1 -36 -7 -50 -34
-9 -19 -20 -37 -24 -40 -4 -4 -4 -1 1 7 5 9 4 12 -3 7 -6 -4 -9 -13 -6 -21 8
-21 -6 -41 -17 -24 -7 10 -8 5 -5 -13 5 -31 -2 -42 -20 -27 -8 7 -14 6 -20 -2
-4 -7 -3 -9 4 -5 22 13 22 -15 0 -66 -12 -29 -25 -55 -28 -58 -3 -3 -11 -18
-19 -35 -54 -123 -65 -144 -74 -138 -6 3 -7 1 -4 -4 4 -6 -11 -49 -33 -95 -36
-77 -42 -84 -71 -86 -17 -1 -38 3 -47 10 -11 9 -14 9 -9 1 6 -9 -135 -12 -623
-12 -489 0 -634 -3 -650 -13 -11 -7 -27 -29 -36 -48 -56 -121 -120 -246 -129
-252 -5 -4 -7 -8 -3 -8 4 0 -6 -27 -23 -59 -16 -33 -29 -64 -29 -69 0 -6 -7
-12 -15 -16 -9 -3 -12 -12 -8 -22 5 -13 3 -15 -7 -9 -9 5 -11 4 -6 -3 4 -7 3
-20 -3 -29 -7 -13 -10 11 -13 85 -2 85 -1 102 12 102 10 0 11 3 3 8 -16 10
-23 234 -7 228 9 -3 9 2 0 19 -16 31 -13 71 5 67 11 -2 11 1 -1 10 -19 17 -19
46 0 58 13 8 13 10 -1 10 -16 0 -19 26 -5 48 4 6 3 12 -2 12 -5 0 -8 10 -7 23
2 13 8 21 16 19 11 -2 11 1 -1 10 -19 16 -19 40 -1 62 12 14 12 16 -1 11 -19
-7 -18 26 1 49 12 14 12 16 -1 11 -11 -4 -14 0 -13 17 2 13 8 22 16 20 11 -2
11 1 -1 10 -19 17 -19 54 0 50 13 -2 13 0 0 10 -16 14 -19 36 -7 56 5 6 4 12
-1 12 -14 0 -7 41 9 51 12 7 11 9 -2 9 -16 0 -19 26 -5 48 4 6 4 12 -1 12 -14
0 -8 75 7 88 8 8 10 11 4 8 -19 -9 -23 32 -5 48 26 24 131 67 144 60 7 -4 9
-4 5 1 -7 7 32 34 57 39 6 1 20 7 31 14 12 6 24 8 28 5 3 -3 6 -1 6 6 0 8 6
11 17 7 10 -4 14 -4 10 0 -4 5 18 20 50 35 42 20 62 24 71 17 9 -8 11 -7 7 4
-7 17 40 42 58 32 7 -4 9 -3 4 1 -7 8 113 70 160 81 13 4 23 11 23 16 0 6 9 8
20 5 11 -3 18 -2 15 3 -7 11 24 22 37 13 7 -3 8 -1 4 5 -6 11 0 14 20 11 4 0
10 5 15 12 4 7 21 12 39 12 17 0 26 4 19 7 -12 8 91 60 118 60 8 0 35 -10 61
-22 26 -12 49 -22 52 -23 9 -1 174 -69 197 -81 13 -6 19 -15 15 -19 -4 -5 -1
-5 6 -1 7 4 33 0 57 -10 39 -15 43 -19 33 -33 -11 -14 -11 -14 3 -4 16 13 59
7 59 -9 0 -5 3 -7 8 -4 4 2 30 -6 57 -19 28 -13 56 -24 63 -24 7 -1 11 -4 9
-8 -3 -5 5 -9 16 -9 12 -1 52 -16 89 -33 36 -17 69 -31 72 -31 18 0 155 -64
151 -70 -3 -5 3 -6 14 -3 10 3 22 -1 26 -8 6 -8 4 -10 -5 -4 -8 5 -11 4 -6 -3
4 -6 13 -9 20 -6 13 5 131 -39 206 -76 13 -6 15 -84 15 -611 0 -496 -2 -604
-13 -601 -8 1 -11 -2 -7 -8 3 -6 10 -8 15 -5 4 3 8 -91 7 -209 l-1 -214 -123
-57 c-67 -31 -128 -53 -133 -50 -6 4 -9 1 -8 -7 2 -7 -4 -13 -12 -13 -8 0 -17
-3 -20 -6 -5 -5 -83 -44 -260 -127 -36 -17 -72 -32 -80 -34 -8 -2 -17 -5 -20
-8 -7 -7 -108 -61 -115 -61 -9 0 -175 -80 -175 -85 0 -2 17 3 38 12 20 9 44
18 52 21 8 3 24 9 35 13 11 5 42 18 69 29 26 12 52 18 57 15 5 -3 9 -1 9 4 0
5 15 15 33 22 17 7 51 21 74 31 24 11 47 19 52 19 5 0 34 11 65 25 32 14 62
23 67 20 5 -4 9 -1 9 5 0 7 7 9 17 6 10 -4 14 -4 10 0 -9 9 111 56 123 49 5
-3 10 -1 12 5 1 5 12 11 23 13 28 5 47 13 149 58 48 21 93 36 99 32 6 -3 7 -1
3 5 -4 7 -3 12 2 12 16 0 27 72 22 140 -3 36 -2 77 2 93 4 16 2 27 -3 27 -6 0
-7 5 -4 11 7 11 8 439 1 446 -2 3 0 18 4 34 5 18 5 29 -1 29 -6 0 -7 4 -4 10
7 11 8 680 1 687 -2 3 0 18 4 34 5 18 5 29 -1 29 -6 0 -7 5 -3 11 4 7 6 48 5
93 -4 110 -4 115 -12 110 -8 -5 -112 37 -120 49 -3 5 -8 7 -10 6 -10 -8 -128
44 -122 54 3 6 1 7 -5 3 -11 -6 -179 58 -192 73 -3 3 -12 7 -20 9 -15 3 -50
17 -82 33 -10 5 -22 9 -28 9 -11 0 -102 41 -110 49 -3 3 -12 7 -20 9 -8 1 -24
7 -35 11 -11 5 -35 15 -52 23 -18 7 -33 17 -33 21 0 5 -4 6 -9 3 -5 -4 -42 9
-83 28 -40 18 -90 39 -110 45 -21 7 -38 17 -38 22 0 6 -4 8 -8 5 -5 -3 -44 11
-88 30 -111 49 -125 48 -251 -12 -79 -38 -111 -49 -121 -42 -9 8 -11 7 -7 -3
6 -17 -130 -83 -152 -74 -8 2 -11 1 -8 -5 3 -5 -3 -14 -14 -19 -26 -14 -44
-14 -35 1 5 7 3 8 -5 4 -7 -5 -10 -11 -7 -14 6 -6 -77 -52 -104 -57 -8 -2 -17
-4 -20 -5 -3 -1 -8 -2 -12 -1 -5 0 -8 -3 -8 -8 0 -9 -60 -37 -72 -33 -5 1 -8
-2 -8 -8 0 -5 -9 -10 -19 -10 -11 0 -21 -5 -23 -11 -2 -6 -15 -12 -30 -12 -14
-1 -24 -5 -22 -8 6 -10 -76 -40 -88 -33 -6 4 -8 3 -5 -3 4 -6 -4 -15 -18 -21
-18 -8 -25 -8 -29 1 -3 8 -5 7 -5 -3 -1 -19 -42 -38 -74 -35 -15 2 -24 -2 -24
-11 0 -10 4 -11 11 -4 26 26 26 6 0 -22 -16 -17 -23 -28 -16 -23 12 6 12 3 2
-15 -8 -15 -8 -20 -1 -16 15 10 14 -7 -1 -23 -7 -8 -8 -11 -2 -8 12 7 11 -83
-1 -103 -5 -9 -4 -11 3 -6 16 10 15 -7 0 -23 -7 -8 -8 -11 -3 -8 12 6 13 -452
0 -472 -4 -8 -4 -12 1 -8 5 3 9 -41 9 -104 0 -88 -3 -109 -15 -113 -10 -2 -9
-4 4 -5 20 -1 20 -1 0 -16 -11 -9 -13 -14 -5 -13 20 4 21 -93 1 -110 -11 -9
-12 -12 -1 -10 7 2 16 -3 19 -11 3 -8 0 -11 -7 -7 -7 4 -9 1 -5 -8 11 -28 10
-116 -1 -116 -7 0 -7 -3 0 -8 14 -10 14 -52 1 -52 -6 0 -4 -5 4 -10 12 -8 12
-10 1 -10 -11 0 -11 -3 0 -17 11 -13 11 -17 2 -20 -10 -4 -10 -10 -2 -25 9
-16 8 -19 -2 -13 -8 6 -10 4 -4 -6 12 -19 12 -73 0 -81 -6 -5 -6 -8 2 -8 7 0
10 -7 6 -17 -4 -10 -2 -14 4 -10 6 4 13 1 16 -7 3 -8 15 -12 31 -9 14 3 23 9
20 14 -3 5 -1 9 4 9 6 0 15 14 21 31 6 17 14 28 19 25 4 -2 9 4 10 15 4 43 6
49 14 49 4 0 8 7 8 15 0 8 8 15 18 16 9 0 12 3 5 6 -9 3 -6 17 11 51 13 26 45
93 72 149 26 56 52 99 58 96 5 -3 6 -1 3 4 -4 6 11 49 33 96 l40 84 675 1
c472 0 680 3 689 11 7 6 16 8 20 4 4 -4 4 1 0 11 -6 15 -4 17 6 11 9 -5 11 -4
6 3 -4 7 -4 18 1 25 4 6 8 14 9 17 12 39 18 49 27 43 5 -3 7 -1 3 5 -7 12 23
82 36 82 5 0 6 5 3 10 -3 6 -1 10 5 10 6 0 9 4 5 9 -3 5 2 17 11 25 8 9 13 16
10 16 -4 0 8 28 26 63 17 34 33 67 34 72 5 21 53 110 54 100 6 -39 5 -67 -2
-71 -4 -3 -9 5 -9 18 -1 18 -2 19 -6 5 -3 -10 3 -27 13 -38 9 -10 12 -19 6
-19 -6 0 -10 -9 -9 -20 1 -11 4 -20 7 -20 5 0 5 -20 1 -65 -1 -5 -6 -3 -11 5
-6 9 -10 10 -10 3 0 -7 8 -17 18 -22 9 -6 12 -11 6 -11 -11 0 -16 -30 -5 -30
3 0 6 -20 6 -45 0 -25 -4 -45 -8 -45 -5 0 -5 -5 -1 -11 10 -16 11 -199 1 -199
-4 0 -3 -8 2 -18 6 -11 6 -24 0 -35 -6 -9 -6 -17 -1 -17 4 0 8 -11 8 -25 0
-14 -4 -25 -8 -25 -5 0 -5 -8 0 -17 10 -20 9 -64 -2 -81 -4 -7 -3 -12 3 -12
11 0 9 -19 -3 -39 -5 -8 -5 -12 0 -8 11 6 12 -73 1 -90 -4 -6 -3 -14 2 -17 11
-7 9 -25 -3 -45 -6 -8 -5 -12 0 -8 11 6 11 -33 1 -50 -4 -7 -4 -14 1 -17 9 -6
8 -59 -3 -75 -3 -6 -3 -11 2 -11 4 0 8 -18 8 -40 0 -22 -4 -40 -10 -40 -5 0
-4 -5 2 -11 13 -13 6 -42 -8 -33 -5 3 -9 0 -9 -6 0 -7 -7 -9 -16 -6 -8 3 -12
2 -9 -4 5 -9 -7 -12 -31 -9 -3 0 -11 -7 -18 -17 -7 -9 -18 -14 -24 -10 -5 3
-12 0 -15 -6 -3 -10 -8 -10 -23 2 -17 14 -18 14 -6 -2 11 -14 10 -17 -10 -24
-13 -4 -26 -8 -30 -9 -3 0 -10 -4 -15 -8 -15 -16 -75 -37 -86 -30 -5 3 -7 1
-4 -4 4 -6 -9 -17 -31 -26 -20 -8 -76 -34 -124 -57 -48 -23 -93 -38 -99 -34
-7 4 -9 3 -6 -3 6 -10 -50 -40 -65 -35 -5 1 -8 -3 -8 -9 0 -6 -7 -8 -16 -5
-10 4 -13 2 -8 -6 5 -7 0 -9 -14 -6 -12 4 -19 2 -16 -3 3 -5 -3 -12 -13 -15
-10 -4 -55 -24 -100 -46 -47 -22 -88 -36 -95 -32 -7 4 -10 4 -6 -1 9 -10 -37
-35 -63 -35 -11 0 -19 5 -19 12 0 6 -3 9 -6 5 -10 -9 -64 14 -57 26 3 6 1 7
-6 3 -13 -8 -101 22 -101 35 0 5 -7 5 -17 2 -12 -5 -14 -3 -8 7 5 8 4 11 -2 7
-12 -7 -94 23 -89 32 2 3 -6 7 -17 7 -12 1 -49 14 -82 30 -33 15 -62 28 -65
29 -24 4 -80 31 -80 38 0 4 -4 6 -8 3 -5 -3 -21 2 -36 10 -16 7 -35 14 -42 14
-8 0 -14 5 -14 10 0 6 -3 9 -7 8 -8 -3 -47 11 -128 47 -27 12 -67 28 -87 35
-20 8 -34 18 -31 23 3 6 1 7 -6 3 -6 -4 -25 3 -43 15 -17 13 -28 18 -24 11 3
-6 -16 -2 -43 10 -28 11 -48 25 -45 30 4 6 -2 8 -14 4 -12 -4 -26 -1 -36 9 -9
9 -16 13 -16 9 0 -5 -5 -3 -11 3 -6 6 -18 9 -25 6 -8 -3 -14 0 -14 7 0 6 -4 9
-9 5 -5 -3 -13 0 -18 7 -11 18 -15 50 -5 44 5 -3 9 1 9 9 0 8 -4 12 -7 10 -11
-7 -7 57 4 74 6 9 5 12 -1 8 -6 -4 -10 4 -10 18 0 14 4 22 10 18 6 -4 7 -1 1
8 -14 21 -13 560 0 552 7 -5 7 -2 0 8 -16 19 -15 241 0 232 8 -5 8 -3 0 8 -15
19 -15 199 0 218 8 11 8 13 0 8 -8 -5 -11 54 -11 211 l1 217 49 22 c27 13 53
21 57 18 5 -3 12 0 16 6 5 8 3 9 -6 4 -9 -5 -11 -4 -6 3 4 7 12 12 19 12 6 0
44 16 84 36 40 19 78 32 85 28 6 -4 8 -3 5 3 -9 14 48 37 64 27 7 -4 10 -3 6
3 -9 14 119 77 135 67 6 -4 8 -3 5 3 -6 10 120 72 131 65 3 -2 8 1 11 6 6 10
175 92 190 92 5 0 14 7 21 15 13 16 10 20 -5 7z"/>
<path d="M1229 2793 c-13 -16 -12 -17 4 -4 9 7 17 15 17 17 0 8 -8 3 -21 -13z"/>
<path d="M1055 2729 c-3 -4 2 -6 10 -5 21 3 28 13 10 13 -9 0 -18 -4 -20 -8z"/>
<path d="M815 2690 c-3 -5 -1 -10 4 -10 6 0 11 5 11 10 0 6 -2 10 -4 10 -3 0
-8 -4 -11 -10z"/>
<path d="M930 2690 c0 -5 5 -10 11 -10 5 0 7 5 4 10 -3 6 -8 10 -11 10 -2 0
-4 -4 -4 -10z"/>
<path d="M816 2588 c3 -5 10 -6 15 -3 13 9 11 12 -6 12 -8 0 -12 -4 -9 -9z"/>
<path d="M586 2568 c3 -4 9 -8 15 -8 5 0 9 4 9 8 0 5 -7 9 -15 9 -8 0 -12 -4
-9 -9z"/>
<path d="M590 2488 c0 -4 4 -8 9 -8 6 0 12 4 15 8 3 5 -1 9 -9 9 -8 0 -15 -4
-15 -9z"/>
<path d="M516 2452 c-2 -4 -1 -14 4 -22 7 -11 9 -9 7 8 -1 24 -3 26 -11 14z"/>
<path d="M513 2395 c0 -8 4 -12 9 -9 5 3 6 10 3 15 -9 13 -12 11 -12 -6z"/>
<path d="M2486 2388 c3 -5 10 -6 15 -3 13 9 11 12 -6 12 -8 0 -12 -4 -9 -9z"/>
<path d="M430 2366 c0 -2 8 -10 18 -17 15 -13 16 -12 3 4 -13 16 -21 21 -21
13z"/>
<path d="M470 2356 c0 -2 7 -7 16 -10 8 -3 12 -2 9 4 -6 10 -25 14 -25 6z"/>
<path d="M2576 2328 c3 -5 10 -6 15 -3 13 9 11 12 -6 12 -8 0 -12 -4 -9 -9z"/>
<path d="M650 2310 c0 -5 5 -10 11 -10 5 0 7 5 4 10 -3 6 -8 10 -11 10 -2 0
-4 -4 -4 -10z"/>
<path d="M2726 2312 c-3 -5 1 -9 9 -9 8 0 12 4 9 9 -3 4 -7 8 -9 8 -2 0 -6 -4
-9 -8z"/>
<path d="M515 2290 c3 -5 8 -10 11 -10 2 0 4 5 4 10 0 6 -5 10 -11 10 -5 0 -7
-4 -4 -10z"/>
<path d="M2526 2288 c3 -5 10 -6 15 -3 13 9 11 12 -6 12 -8 0 -12 -4 -9 -9z"/>
<path d="M666 2232 c-3 -5 1 -9 9 -9 8 0 12 4 9 9 -3 4 -7 8 -9 8 -2 0 -6 -4
-9 -8z"/>
<path d="M2674 2215 c3 -16 1 -34 -4 -40 -7 -8 -5 -12 4 -12 14 0 16 61 2 74
-4 4 -5 -6 -2 -22z"/>
<path d="M469 2193 c-13 -16 -12 -17 4 -4 9 7 17 15 17 17 0 8 -8 3 -21 -13z"/>
<path d="M2795 2181 c-3 -5 -2 -12 3 -15 5 -3 9 1 9 9 0 17 -3 19 -12 6z"/>
<path d="M2756 2151 c-3 -4 6 -7 19 -7 14 0 22 2 19 5 -8 8 -34 10 -38 2z"/>
<path d="M2706 2128 c3 -4 9 -8 15 -8 5 0 9 4 9 8 0 5 -7 9 -15 9 -8 0 -12 -4
-9 -9z"/>
<path d="M2755 2119 c-4 -6 -5 -12 -2 -15 2 -3 7 2 10 11 7 17 1 20 -8 4z"/>
<path d="M470 2106 c7 -7 13 -7 20 0 6 6 3 10 -10 10 -13 0 -16 -4 -10 -10z"/>
<path d="M2434 2065 c0 -13 3 -22 7 -19 8 4 6 30 -2 38 -3 3 -5 -5 -5 -19z"/>
<path d="M2693 2075 c0 -8 3 -13 5 -10 3 3 12 -1 21 -7 10 -8 9 -4 -3 10 -23
26 -23 26 -23 7z"/>
<path d="M399 2058 c-7 -23 -4 -35 7 -35 9 0 11 4 4 12 -5 7 -7 15 -3 18 3 4
3 7 0 7 -4 0 -7 -1 -8 -2z"/>
<path d="M515 2050 c3 -5 8 -10 11 -10 2 0 4 5 4 10 0 6 -5 10 -11 10 -5 0 -7
-4 -4 -10z"/>
<path d="M2690 2047 c0 -2 6 -10 14 -16 11 -9 16 -9 22 1 4 7 4 10 -1 6 -4 -4
-14 -3 -22 3 -7 6 -13 9 -13 6z"/>
<path d="M2668 2023 c-4 -13 0 -19 13 -19 14 0 16 3 6 16 -6 8 -12 16 -13 18
-1 1 -4 -5 -6 -15z"/>
<path d="M2776 2028 c3 -5 10 -6 15 -3 13 9 11 12 -6 12 -8 0 -12 -4 -9 -9z"/>
<path d="M2520 1990 c0 -5 5 -10 10 -10 6 0 10 5 10 10 0 6 -4 10 -10 10 -5 0
-10 -4 -10 -10z"/>
<path d="M2375 1970 c3 -5 8 -10 11 -10 2 0 4 5 4 10 0 6 -5 10 -11 10 -5 0
-7 -4 -4 -10z"/>
<path d="M2689 1953 c-13 -16 -12 -17 4 -4 16 13 21 21 13 21 -2 0 -10 -8 -17
-17z"/>
<path d="M2510 1950 c0 -5 7 -7 15 -4 8 4 15 8 15 10 0 2 -7 4 -15 4 -8 0 -15
-4 -15 -10z"/>
<path d="M2795 1941 c-3 -5 -2 -12 3 -15 5 -3 9 1 9 9 0 17 -3 19 -12 6z"/>
<path d="M2493 1922 c0 -12 5 -22 9 -22 11 0 10 12 -2 30 -7 12 -9 10 -7 -8z"/>
<path d="M2524 1929 c-4 -7 -3 -9 4 -5 6 3 13 -2 15 -11 4 -16 5 -16 6 -1 1
21 -15 32 -25 17z"/>
<path d="M434 1919 c-3 -6 -2 -15 3 -20 5 -5 9 -1 9 11 0 23 -2 24 -12 9z"/>
<path d="M2655 1921 c-3 -5 -2 -12 3 -15 5 -3 9 1 9 9 0 17 -3 19 -12 6z"/>
<path d="M393 1905 c0 -8 4 -12 9 -9 4 3 8 9 8 15 0 5 -4 9 -8 9 -5 0 -9 -7
-9 -15z"/>
<path d="M2515 1890 c-3 -5 -1 -10 4 -10 6 0 11 5 11 10 0 6 -2 10 -4 10 -3 0
-8 -4 -11 -10z"/>
<path d="M2693 1875 c0 -8 4 -15 9 -15 4 0 8 4 8 9 0 6 -4 12 -8 15 -5 3 -9
-1 -9 -9z"/>
<path d="M2467 1869 c7 -7 15 -10 18 -7 3 3 -2 9 -12 12 -14 6 -15 5 -6 -5z"/>
<path d="M2795 1861 c-3 -5 -2 -12 3 -15 5 -3 9 1 9 9 0 17 -3 19 -12 6z"/>
<path d="M2506 1847 c3 -10 9 -15 12 -12 3 3 0 11 -7 18 -10 9 -11 8 -5 -6z"/>
<path d="M2449 1793 c-13 -16 -12 -17 4 -4 9 7 17 15 17 17 0 8 -8 3 -21 -13z"/>
<path d="M2535 1800 c-4 -6 -11 -8 -16 -5 -5 4 -9 2 -9 -4 0 -5 8 -9 18 -8 10
0 19 7 19 14 0 16 -4 16 -12 3z"/>
<path d="M400 1790 c-9 -6 -10 -10 -3 -10 6 0 15 5 18 10 8 12 4 12 -15 0z"/>
<path d="M2696 1783 c-6 -14 -5 -15 5 -6 7 7 10 15 7 18 -3 3 -9 -2 -12 -12z"/>
<path d="M515 1770 c-3 -5 -1 -10 4 -10 6 0 11 5 11 10 0 6 -2 10 -4 10 -3 0
-8 -4 -11 -10z"/>
<path d="M2524 1748 c-12 -14 -13 -18 -3 -10 9 6 18 10 21 7 2 -3 5 2 5 10 0
19 0 19 -23 -7z"/>
<path d="M2754 1759 c-3 -6 -2 -15 3 -20 5 -5 9 -1 9 11 0 23 -2 24 -12 9z"/>
<path d="M2719 1743 c-13 -16 -12 -17 4 -4 9 7 17 15 17 17 0 8 -8 3 -21 -13z"/>
<path d="M466 1712 c-2 -4 4 -8 14 -8 10 0 16 4 14 8 -3 4 -9 8 -14 8 -5 0
-11 -4 -14 -8z"/>
<path d="M1515 1710 c-3 -5 -1 -10 4 -10 6 0 11 5 11 10 0 6 -2 10 -4 10 -3 0
-8 -4 -11 -10z"/>
<path d="M2219 1698 c-5 -18 -6 -38 -1 -34 7 8 12 36 6 36 -2 0 -4 -1 -5 -2z"/>
<path d="M2433 1677 c0 -8 6 -14 14 -14 9 0 10 4 2 14 -6 7 -12 13 -14 13 -1
0 -2 -6 -2 -13z"/>
<path d="M1195 1670 c3 -5 8 -10 11 -10 2 0 4 5 4 10 0 6 -5 10 -11 10 -5 0
-7 -4 -4 -10z"/>
<path d="M1470 1676 c0 -2 7 -7 16 -10 8 -3 12 -2 9 4 -6 10 -25 14 -25 6z"/>
<path d="M1675 1670 c3 -5 8 -10 11 -10 2 0 4 5 4 10 0 6 -5 10 -11 10 -5 0
-7 -4 -4 -10z"/>
<path d="M2375 1670 c-3 -5 -1 -10 4 -10 6 0 11 5 11 10 0 6 -2 10 -4 10 -3 0
-8 -4 -11 -10z"/>
<path d="M469 1627 c6 -8 7 -18 3 -22 -4 -5 -1 -5 6 -1 10 6 10 11 1 22 -6 8
-14 14 -16 14 -3 0 0 -6 6 -13z"/>
<path d="M2799 1628 c-6 -23 -7 -48 -1 -48 4 0 8 11 8 25 0 21 -4 33 -7 23z"/>
<path d="M655 1570 c3 -5 8 -10 11 -10 2 0 4 5 4 10 0 6 -5 10 -11 10 -5 0 -7
-4 -4 -10z"/>
<path d="M2515 1569 c-3 -4 2 -6 10 -5 21 3 28 13 10 13 -9 0 -18 -4 -20 -8z"/>
<path d="M2791 1557 c-8 -10 -7 -14 2 -14 8 0 14 6 14 14 0 7 -1 13 -2 13 -2
0 -8 -6 -14 -13z"/>
<path d="M735 1530 c-3 -5 -1 -10 4 -10 6 0 11 5 11 10 0 6 -2 10 -4 10 -3 0
-8 -4 -11 -10z"/>
<path d="M955 1519 c-4 -6 -5 -12 -2 -15 2 -3 7 2 10 11 7 17 1 20 -8 4z"/>
<path d="M2679 1528 c-5 -18 -6 -38 -1 -34 7 8 12 36 6 36 -2 0 -4 -1 -5 -2z"/>
<path d="M675 1481 c-3 -5 -2 -12 3 -15 5 -3 9 1 9 9 0 17 -3 19 -12 6z"/>
<path d="M2510 1469 c0 -5 5 -7 10 -4 6 3 10 8 10 11 0 2 -4 4 -10 4 -5 0 -10
-5 -10 -11z"/>
<path d="M680 1390 c-8 -5 -10 -10 -5 -10 6 0 17 5 25 10 8 5 11 10 5 10 -5 0
-17 -5 -25 -10z"/>
<path d="M720 1396 c0 -2 8 -10 18 -17 15 -13 16 -12 3 4 -13 16 -21 21 -21
13z"/>
<path d="M706 1372 c-3 -5 1 -9 9 -9 8 0 12 4 9 9 -3 4 -7 8 -9 8 -2 0 -6 -4
-9 -8z"/>
<path d="M2669 1353 c-13 -16 -12 -17 4 -4 9 7 17 15 17 17 0 8 -8 3 -21 -13z"/>
<path d="M427 1309 c7 -7 15 -10 18 -7 3 3 -2 9 -12 12 -14 6 -15 5 -6 -5z"/>
<path d="M670 1300 l-25 -21 28 12 c15 7 27 16 27 21 0 11 -1 10 -30 -12z"/>
<path d="M2795 1301 c-3 -5 -2 -12 3 -15 5 -3 9 1 9 9 0 17 -3 19 -12 6z"/>
<path d="M531 1264 c0 -11 3 -14 6 -6 3 7 2 16 -1 19 -3 4 -6 -2 -5 -13z"/>
<path d="M654 1259 c1 -7 10 -13 19 -15 9 -1 15 2 11 7 -3 5 -9 7 -14 4 -4 -3
-11 0 -13 5 -3 6 -4 5 -3 -1z"/>
<path d="M2799 1265 c-1 -3 -2 -8 -3 -12 -1 -5 -4 -13 -8 -19 -4 -6 -1 -11 5
-11 7 0 13 11 13 24 0 21 -4 31 -7 18z"/>
<path d="M479 1243 c-13 -16 -12 -17 4 -4 9 7 17 15 17 17 0 8 -8 3 -21 -13z"/>
<path d="M499 1223 c-13 -16 -12 -17 4 -4 9 7 17 15 17 17 0 8 -8 3 -21 -13z"/>
<path d="M434 1185 c0 -19 3 -32 5 -29 8 7 9 54 2 59 -4 2 -7 -12 -7 -30z"/>
<path d="M2679 1208 c-5 -18 -6 -38 -1 -34 7 8 12 36 6 36 -2 0 -4 -1 -5 -2z"/>
<path d="M385 1190 c-3 -6 1 -7 9 -4 18 7 21 14 7 14 -6 0 -13 -4 -16 -10z"/>
<path d="M477 1188 c-7 -5 0 -6 17 -4 16 3 31 7 33 10 8 8 -37 2 -50 -6z"/>
<path d="M519 1178 c-6 -23 -6 -58 0 -58 5 0 8 10 7 23 -1 12 3 25 9 29 6 5 6
8 -2 8 -7 0 -13 -1 -14 -2z"/>
<path d="M766 1172 c-3 -5 1 -9 9 -9 8 0 12 4 9 9 -3 4 -7 8 -9 8 -2 0 -6 -4
-9 -8z"/>
<path d="M380 1155 c0 -2 6 -8 13 -14 10 -8 14 -7 14 2 0 8 -6 14 -14 14 -7 0
-13 -1 -13 -2z"/>
<path d="M446 1108 c4 -5 9 -7 12 -4 3 3 15 -2 26 -11 21 -18 21 -18 3 3 -16
20 -52 30 -41 12z"/>
<path d="M2669 1033 c-13 -16 -12 -17 4 -4 16 13 21 21 13 21 -2 0 -10 -8 -17
-17z"/>
<path d="M430 1012 c0 -5 7 -9 15 -9 8 0 12 4 9 9 -3 4 -9 8 -15 8 -5 0 -9 -4
-9 -8z"/>
<path d="M476 1008 c3 -5 10 -6 15 -3 13 9 11 12 -6 12 -8 0 -12 -4 -9 -9z"/>
<path d="M513 997 c-1 -11 -1 -18 0 -16 2 2 8 11 15 20 9 12 9 16 -1 16 -7 0
-14 -9 -14 -20z"/>
<path d="M2660 996 c0 -2 8 -10 18 -17 15 -13 16 -12 3 4 -13 16 -21 21 -21
13z"/>
<path d="M2795 981 c-3 -5 -2 -12 3 -15 5 -3 9 1 9 9 0 17 -3 19 -12 6z"/>
<path d="M2787 949 c7 -7 15 -10 18 -7 3 3 -2 9 -12 12 -14 6 -15 5 -6 -5z"/>
<path d="M473 904 c0 -9 4 -11 12 -4 7 5 14 9 16 7 2 -1 3 0 1 2 -7 11 -29 7
-29 -5z"/>
<path d="M475 871 c-3 -5 -2 -12 3 -15 5 -3 9 1 9 9 0 17 -3 19 -12 6z"/>
<path d="M640 870 c-9 -6 -10 -10 -3 -10 6 0 15 5 18 10 8 12 4 12 -15 0z"/>
<path d="M2460 876 c0 -2 8 -10 18 -17 15 -13 16 -12 3 4 -13 16 -21 21 -21
13z"/>
<path d="M2706 832 c-3 -5 1 -9 9 -9 8 0 12 4 9 9 -3 4 -7 8 -9 8 -2 0 -6 -4
-9 -8z"/>
<path d="M550 810 c0 -5 5 -10 11 -10 5 0 7 5 4 10 -3 6 -8 10 -11 10 -2 0 -4
-4 -4 -10z"/>
<path d="M2470 809 c0 -5 5 -7 10 -4 6 3 10 8 10 11 0 2 -4 4 -10 4 -5 0 -10
-5 -10 -11z"/>
<path d="M2726 788 c3 -5 10 -6 15 -3 13 9 11 12 -6 12 -8 0 -12 -4 -9 -9z"/>
<path d="M2346 752 c-3 -5 1 -9 9 -9 8 0 12 4 9 9 -3 4 -7 8 -9 8 -2 0 -6 -4
-9 -8z"/>
<path d="M2630 746 c0 -2 8 -10 18 -17 15 -13 16 -12 3 4 -13 16 -21 21 -21
13z"/>
<path d="M2773 715 c0 -8 4 -12 9 -9 5 3 6 10 3 15 -9 13 -12 11 -12 -6z"/>
<path d="M876 703 c-6 -14 -5 -15 5 -6 7 7 10 15 7 18 -3 3 -9 -2 -12 -12z"/>
<path d="M2713 703 c0 -9 4 -10 14 -2 7 6 13 12 13 14 0 1 -6 2 -13 2 -8 0
-14 -6 -14 -14z"/>
<path d="M2556 672 c-3 -5 1 -9 9 -9 8 0 12 4 9 9 -3 4 -7 8 -9 8 -2 0 -6 -4
-9 -8z"/>
<path d="M2715 671 c-3 -5 -2 -12 3 -15 5 -3 9 1 9 9 0 17 -3 19 -12 6z"/>
<path d="M2480 650 c-9 -6 -10 -10 -3 -10 6 0 15 5 18 10 8 12 4 12 -15 0z"/>
<path d="M2605 610 c-3 -6 1 -7 9 -4 18 7 21 14 7 14 -6 0 -13 -4 -16 -10z"/>
<path d="M2433 595 c0 -8 4 -12 9 -9 5 3 6 10 3 15 -9 13 -12 11 -12 -6z"/>
<path d="M2515 601 c-3 -5 -2 -12 3 -15 5 -3 9 1 9 9 0 17 -3 19 -12 6z"/>
<path d="M2466 592 c-2 -4 4 -8 14 -8 10 0 16 4 14 8 -3 4 -9 8 -14 8 -5 0
-11 -4 -14 -8z"/>
<path d="M2335 570 c3 -5 8 -10 11 -10 2 0 4 5 4 10 0 6 -5 10 -11 10 -5 0 -7
-4 -4 -10z"/>
<path d="M2375 570 c3 -5 8 -10 11 -10 2 0 4 5 4 10 0 6 -5 10 -11 10 -5 0 -7
-4 -4 -10z"/>
<path d="M2294 546 c1 -8 5 -18 8 -22 4 -3 5 1 4 10 -1 8 -5 18 -8 22 -4 3 -5
-1 -4 -10z"/>
<path d="M2465 550 c-3 -6 1 -7 9 -4 18 7 21 14 7 14 -6 0 -13 -4 -16 -10z"/>
<path d="M2375 531 c-3 -5 -2 -12 3 -15 5 -3 9 1 9 9 0 17 -3 19 -12 6z"/>
<path d="M2136 492 c-3 -5 1 -9 9 -9 8 0 12 4 9 9 -3 4 -7 8 -9 8 -2 0 -6 -4
-9 -8z"/>
<path d="M2195 490 c3 -5 8 -10 11 -10 2 0 4 5 4 10 0 6 -5 10 -11 10 -5 0 -7
-4 -4 -10z"/>
<path d="M1436 468 c3 -5 10 -6 15 -3 13 9 11 12 -6 12 -8 0 -12 -4 -9 -9z"/>
<path d="M2055 451 c-3 -5 -2 -12 3 -15 5 -3 9 1 9 9 0 17 -3 19 -12 6z"/>
</g>
</svg>
